<svg width="27" height="27" viewBox="0 0 27 27" fill="none" xmlns="http://www.w3.org/2000/svg">
<g clip-path="url(#clip0_45_319)">
<path d="M13.4523 0.47998H0.530872C0.390076 0.47998 0.255047 0.535799 0.155489 0.635155C0.0559311 0.734512 0 0.869268 0 1.00978V26.1646C0 26.3052 0.0559311 26.4399 0.155489 26.5393C0.255047 26.6386 0.390076 26.6944 0.530872 26.6944H13.4523C16.8696 26.5975 20.1143 25.1745 22.497 22.728C24.8797 20.2815 26.2127 17.0042 26.2127 13.5925C26.2127 10.1808 24.8797 6.9035 22.497 4.45699C20.1143 2.01049 16.8696 0.587571 13.4523 0.490577V0.47998ZM14.7158 22.7421C12.7607 23.0779 10.7494 22.784 8.97287 21.9029C7.19638 21.0218 5.74701 19.5993 4.83462 17.8413C3.92223 16.0834 3.59418 14.0813 3.89797 12.1248C4.20176 10.1684 5.12162 8.35928 6.52437 6.95937C7.92711 5.55947 9.73991 4.64146 11.7003 4.33828C13.6607 4.03511 15.6669 4.36249 17.4284 5.27304C19.1899 6.18359 20.6153 7.63003 21.4981 9.40293C22.381 11.1758 22.6756 13.1831 22.3391 15.1342C22.0117 17.0329 21.1029 18.7838 19.7379 20.1462C18.3728 21.5085 16.6183 22.4154 14.7158 22.7421Z" fill="white"/>
</g>
<defs>
<clipPath id="clip0_45_319">
<rect width="26.2145" height="26.2145" fill="white" transform="translate(0 0.47998)"/>
</clipPath>
</defs>
</svg>
