<svg width="27" height="27" viewBox="0 0 27 27" fill="none" xmlns="http://www.w3.org/2000/svg">
<g clip-path="url(#clip0_24_87)">
<path d="M13.4523 0H0.530872C0.390076 0 0.255047 0.0558181 0.155489 0.155175C0.0559311 0.254531 0 0.389288 0 0.529799V25.6847C0 25.8252 0.0559311 25.9599 0.155489 26.0593C0.255047 26.1586 0.390076 26.2145 0.530872 26.2145H13.4523C16.8696 26.1175 20.1143 24.6946 22.497 22.248C24.8797 19.8015 26.2127 16.5243 26.2127 13.1125C26.2127 9.7008 24.8797 6.42352 22.497 3.97701C20.1143 1.53051 16.8696 0.10759 13.4523 0.0105962V0ZM14.7158 22.2622C12.7607 22.5979 10.7494 22.304 8.97287 21.4229C7.19638 20.5418 5.74701 19.1193 4.83462 17.3614C3.92223 15.6034 3.59418 13.6013 3.89797 11.6449C4.20176 9.68844 5.12162 7.8793 6.52437 6.47939C7.92711 5.07949 9.73991 4.16148 11.7003 3.8583C13.6607 3.55513 15.6669 3.88251 17.4284 4.79306C19.1899 5.70361 20.6153 7.15005 21.4981 8.92295C22.381 10.6958 22.6756 12.7032 22.3391 14.6542C22.0117 16.553 21.1029 18.3038 19.7379 19.6662C18.3728 21.0285 16.6183 21.9354 14.7158 22.2622Z" fill="#1E2B3C"/>
</g>
<defs>
<clipPath id="clip0_24_87">
<rect width="26.2145" height="26.2145" fill="white"/>
</clipPath>
</defs>
</svg>
